<mxfile host="app.diagrams.net" modified="2021-03-09T02:25:36.912Z" agent="5.0 (X11; Linux x86_64) AppleWebKit/537.36 (KHTML, like Gecko) Chrome/89.0.4389.82 Safari/537.36" etag="TUz7ZsKBr5hVHNWjdiUy" version="14.4.5" type="github">
  <diagram id="brLJTESt5yLpLmb8uyz5" name="Page-1">
    <mxGraphModel dx="1588" dy="948" grid="1" gridSize="10" guides="1" tooltips="1" connect="1" arrows="1" fold="1" page="1" pageScale="1" pageWidth="850" pageHeight="1100" math="0" shadow="0">
      <root>
        <mxCell id="0" />
        <mxCell id="1" parent="0" />
        <mxCell id="9mUdJBxfglQSBLXu5AFs-1" value="" style="rounded=0;whiteSpace=wrap;html=1;" vertex="1" parent="1">
          <mxGeometry x="60" y="170" width="650" height="430" as="geometry" />
        </mxCell>
        <mxCell id="9mUdJBxfglQSBLXu5AFs-12" value="" style="rounded=0;whiteSpace=wrap;html=1;dashed=1;" vertex="1" parent="1">
          <mxGeometry x="250" y="230" width="440" height="360" as="geometry" />
        </mxCell>
        <mxCell id="9mUdJBxfglQSBLXu5AFs-2" value="" style="rounded=0;whiteSpace=wrap;html=1;" vertex="1" parent="1">
          <mxGeometry x="270" y="290" width="390" height="280" as="geometry" />
        </mxCell>
        <mxCell id="9mUdJBxfglQSBLXu5AFs-3" value="VNET" style="text;html=1;strokeColor=none;fillColor=none;align=center;verticalAlign=middle;whiteSpace=wrap;rounded=0;" vertex="1" parent="1">
          <mxGeometry x="60" y="140" width="40" height="30" as="geometry" />
        </mxCell>
        <mxCell id="9mUdJBxfglQSBLXu5AFs-6" value="SUBNET" style="text;html=1;strokeColor=none;fillColor=none;align=center;verticalAlign=middle;whiteSpace=wrap;rounded=0;" vertex="1" parent="1">
          <mxGeometry x="250" y="210" width="40" height="20" as="geometry" />
        </mxCell>
        <mxCell id="9mUdJBxfglQSBLXu5AFs-7" value="ASE" style="text;html=1;strokeColor=none;fillColor=none;align=center;verticalAlign=middle;whiteSpace=wrap;rounded=0;" vertex="1" parent="1">
          <mxGeometry x="270" y="270" width="40" height="20" as="geometry" />
        </mxCell>
        <mxCell id="9mUdJBxfglQSBLXu5AFs-9" value="App&amp;nbsp;&lt;br&gt;Service Plan" style="whiteSpace=wrap;html=1;aspect=fixed;" vertex="1" parent="1">
          <mxGeometry x="300" y="430" width="100" height="100" as="geometry" />
        </mxCell>
        <mxCell id="9mUdJBxfglQSBLXu5AFs-13" value="Storage Account" style="whiteSpace=wrap;html=1;aspect=fixed;" vertex="1" parent="1">
          <mxGeometry x="600" y="30" width="80" height="80" as="geometry" />
        </mxCell>
      </root>
    </mxGraphModel>
  </diagram>
</mxfile>
